{"title":"Aliens in the Attic 2009 DVDrip English Klam","uid":6418638,"size":1368407455,"categoryP":"video","categoryS":"movies","magnet":"?xt=urn:btih:0446ca1196821cb3b2b68c030119999153714ad2&amp;dn=Aliens+in+the+Attic+2009+DVDrip+English+Klam&amp;tr=udp%3A%2F%2Ftracker.openbittorrent.com%3A80&amp;tr=udp%3A%2F%2Fopen.demonii.com%3A1337&amp;tr=udp%3A%2F%2Ftracker.coppersurfer.tk%3A6969&amp;tr=udp%3A%2F%2Fexodus.desync.com%3A6969","seeders":2,"leechers":1,"uploader":"Klambake","files":-1,"time":1306198442,"description":"With: Ashley Tisdale, Robert Hoffman and Kevin Nealon\n\nVreemde Gasten,\nDe familie Pearson wil een weekend weg en besluit hun vakantiehuis weer eens op te zoeken. Ze ontdekken echter dat deze is overgenomen door aliens. De tienerdochter Bethany ontdekt al snel dat ze alles op alles moeten zetten om te voorkomen dat deze aliens de wereld zullen overnemen.\n\nA group of kids must protect their vacation home from invading aliens. \n\nGeneral:\n\nComplete name                    : Aliens in the Attic\\Aliens In The Attic.avi\nFormat                           : AVI\nFormat/Info                      : Audio Video Interleave\nFile size                        : 1.27 GiB\nDuration                         : 1h 22mn\nOverall bit rate                 : 2 216 Kbps\n\nVideo:\n\nFormat                           : MPEG-4 Visual\nFormat profile                   : Simple@L3\nFormat settings, BVOP            : No\nFormat settings, QPel            : No\nFormat settings, GMC             : No warppoints\nFormat settings, Matrix          : Default (H.263)\nCodec ID                         : XVID\nCodec ID/Hint                    : XviD\nDuration                         : 1h 22mn\nBit rate                         : 1 757 Kbps\nWidth                            : 652 pixels\nHeight                           : 352 pixels\nDisplay aspect ratio             : 1.852\nFrame rate                       : 25.000 fps\nColor space                      : YUV\nChroma subsampling               : 4:2:0\nBit depth                        : 8 bits\nScan type                        : Progressive\nBits/(Pixel*Frame)               : 0.306\nStream size                      : 1.01 GiB (79%)\nWriting library                  : XviD 1.1.2 (UTC 2006-11-01)\n\nAudio:\n\nFormat                           : AC-3\nFormat/Info                      : Audio Coding 3\nMode extension                   : CM (complete main)\nCodec ID                         : 2000\nDuration                         : 1h 22mn\nBit rate mode                    : Constant\nBit rate                         : 448 Kbps\nChannel(s)                       : 6 channels\nChannel positions                : Front: L C R, Side: L R, LFE\nSampling rate                    : 48.0 KHz\nBit depth                        : 16 bits\nStream size                      : 264 MiB (20%)\nAlignment                        : Aligned on interleaves\nInterleave, duration             : 32 ms (0.80 video frame)\nInterleave, preload duration     : 896 ms\n\n\n","torrent":{"xt":"urn:btih:0446ca1196821cb3b2b68c030119999153714ad2","amp;dn":"Aliens+in+the+Attic+2009+DVDrip+English+Klam","amp;tr":["udp%3A%2F%2Ftracker.openbittorrent.com%3A80","udp%3A%2F%2Fopen.demonii.com%3A1337","udp%3A%2F%2Ftracker.coppersurfer.tk%3A6969","udp%3A%2F%2Fexodus.desync.com%3A6969"],"infoHash":"0446ca1196821cb3b2b68c030119999153714ad2","infoHashBuffer":{"type":"Buffer","data":[4,70,202,17,150,130,28,179,178,182,140,3,1,25,153,145,83,113,74,210]},"announce":[],"urlList":[]}}